<?xml version="1.0" encoding="UTF-8"?>
<svg id="Layer_2" xmlns="http://www.w3.org/2000/svg" version="1.1" viewBox="0 0 500 500">
  <!-- Generator: Adobe Illustrator 29.0.1, SVG Export Plug-In . SVG Version: 2.1.0 Build 192)  -->
  <defs>
    <style>
      .st0 {
        fill: #fff;
        stroke: #fff;
        stroke-miterlimit: 10;
      }
    </style>
  </defs>
  <circle class="st0" cx="251.5" cy="251.5" r="207.5"/>
  <g id="Layer_1">
    <g>
      <path d="M323.2,143.8c20.9,30,12.4,74.6-21.7,96.3,8.6,3.8,28.5,14,41,36.1,20.2,35.8,7.2,78.7,3.2,78.8-.6,0-1.5-.7-2.3-3.6-2.2-8-9-13.2-13-20-.2-43.1-24.8-85.3-71.9-86-3.4-.1-6.7.3-8.7-2.6-13.3-16.3,23.3-.3,37.7-12.3,30.5-25.7,21.6-91.2-19.6-101.4-7.4-1.2-29.5-3.8-31.6,5.5.5,31.6-.7,63.4-.3,95,4.8,14.1,10.6,24.3,14.9,30.9,9.7,14.7,17.5,20.2,25.2,37.1,5.5,12.1,3.6,11.1,6.3,17.8,8.9,22,43.1,11,52.7,33.3,4.4,8.3,5.6,18.5,2.4,27-3.9,6-7.1,13.3-4.6,19.6,5.3,13.4,33.6,14,33.3,16-.2,1.1-10,2.2-22.2-.6-15.2-3.4-30.1-11.1-42-21.1-4-3.2-8.9-.7-13.3-.2-23,2.3-47.6.8-70.2-1.8-.7-3.6-1.6-7.4-2.7-11.3-2.7-9-6.1-16.7-9.5-22.9.6-11,.7-22.2.7-33.2,0-6.5-3.3-1.7-4.4,1.4-5.5,12.8-7.2,26-5.3,39.9.8,4.5,1.2,10.1,4.9,13.3,7.4,4.2,8.8,6.2,8.4,7.3-.7,2.2-8.6-.1-15.9,4.6-3.2,2.1-3.8,3.9-5.8,5.9-.2.2-.3.3-.5.5-7.4,6.6-24.1,7-34.5-.3-15-10.6-13.9-35.4-4.2-48.1,7.4-9.7,19.9-13,31.2-15.9,24-8.2,25.8-42.3,27.5-63.7-.2-30.2,9.3,5.8,16.7,11.9,2.9,2.7,7.7,3.9,9.7,7.6-19.8,32.2-13.6,69,8.2,85,18.7,13.6,43,7.8,47.5,6.6.1-4.8-3.4-9.3-4-14.1-5.5-34.9-22.8-69.4-54.1-88.2-11.6-19.4-28.2-48.4-46.5-84.7-17.4-34.5-44.9-92.7-41.2-94.7,2.2-1.1,15.4,15.7,67.2,101.4,1.5,2.7,3.8,4.6,4.5.3,1.2-8.4,5.9-77.6,14.8-114.4.4-1.8.8-3.2,1-3.8h0c.7,0,1.3.3,1.5.4.4.3.6.8.7,3.3,0,1.1,0,1.6,0,2.1-.1,1.7,0,12.7.4,38.9,31.9-15.5,69.9-5.6,88.5,20.9h0ZM232.5,241c-.3-6.5-10-5.8-9.4.6.3,2,1.4,3.2,2.9,3.7,1.4.5,2.6.3,3,.2.8-.2,1.4-.5,1.5-.6.2-.2.7-.5,1.1-1,.6-.7.9-1.6.9-2.8h0q0-.1,0-.1ZM322.3,343.7c-10.9-9.6-26.6-6.6-30.6,7.7-1.5,5.4-.8,11.6,1.5,16.7,7,16,29.5,24.3,37.9,5.6,3.8-10-.6-23-8.6-29.9h-.1c0-.1,0-.1,0-.1ZM176.3,389.9c14-7,21.8-26.7,13.1-40.5-7.6-12.3-22-11-30.7-.7-1.4,1.6-2.6,3.4-3.7,5.4-.8,1.5-1.6,3.1-2.2,4.8-.4,1-.7,2-1,3.1-2.5,9.5-1.1,19.9,6.2,26.4,4.9,4.3,12.4,4.4,18.1,1.6h.1c0,0,0,0,0,0Z"/>
      <path d="M208.6,171.3c-5.5-17.4,1.8-26.2-2.6-37.7-2.5-6.6-9.1-9.1-15.8-10.2-2.2-.4-4.4-.7-6.6-.8-2.5-.1-4.5-.4-5.2-1.6,0,0-.4-.8,0-1.6.5-1,1.9-1.3,2.7-1.4,0,0,26.6-4.1,38.5,1.1.3.1,1.1.5,1.2,1.1.2.8-.7,1.7-.8,1.9-3.3,3.5-3.6,18.7-3.6,18.7,0,0-1.4,25.3-3,39.1,0,.3-.2.8-.5.9-1.3.3-4.2-9.1-4.4-9.6h0Z"/>
    </g>
    <path d="M233.8,516.3"/>
    <path d="M182.6,404.8"/>
    <path d="M140.7,65.3"/>
    <path d="M303.9,288.6"/>
    <path d="M-81.8,143.2"/>
    <path d="M230.7,21.4"/>
    <path d="M99.6,77.6"/>
    <path d="M340.1,231.1"/>
  </g>
</svg>